<?xml version="1.0" encoding="UTF-8"?>
<svg id="Blue_Logo" data-name="Blue Logo" xmlns="http://www.w3.org/2000/svg" xmlns:xlink="http://www.w3.org/1999/xlink" viewBox="0 0 160 70">
    <defs>
        <style>
            .cls-1 {
            fill: none;
            }

            .cls-2 {
            fill: url(#linear-gradient-2);
            }

            .cls-3 {
            fill: url(#linear-gradient);
            }

            .cls-4 {
            fill: url(#linear-gradient-8);
            }

            .cls-4, .cls-5, .cls-6, .cls-7, .cls-8, .cls-9, .cls-10, .cls-11, .cls-12, .cls-13, .cls-14, .cls-15, .cls-16, .cls-17 {
            opacity: .9;
            }

            .cls-4, .cls-5, .cls-6, .cls-7, .cls-8, .cls-9, .cls-10, .cls-11, .cls-12, .cls-13, .cls-14, .cls-15, .cls-16, .cls-17, .cls-18 {
            isolation: isolate;
            }

            .cls-5 {
            fill: url(#linear-gradient-5);
            }

            .cls-6 {
            fill: url(#linear-gradient-7);
            }

            .cls-7 {
            fill: url(#linear-gradient-6);
            }

            .cls-8 {
            fill: url(#linear-gradient-4);
            }

            .cls-9 {
            fill: url(#linear-gradient-9);
            }

            .cls-10 {
            fill: url(#linear-gradient-3);
            }

            .cls-19 {
            fill: url(#linear-gradient-18);
            }

            .cls-11 {
            fill: url(#linear-gradient-15);
            }

            .cls-12 {
            fill: url(#linear-gradient-16);
            }

            .cls-13 {
            fill: url(#linear-gradient-14);
            }

            .cls-14 {
            fill: url(#linear-gradient-13);
            }

            .cls-15 {
            fill: url(#linear-gradient-12);
            }

            .cls-16 {
            fill: url(#linear-gradient-11);
            }

            .cls-17 {
            fill: url(#linear-gradient-10);
            }

            .cls-18 {
            fill: url(#linear-gradient-17);
            opacity: .85;
            }

            .cls-20 {
            clip-path: url(#clippath);
            }
        </style>
        <linearGradient id="linear-gradient" x1="66" y1="35" x2="157" y2="35" gradientUnits="userSpaceOnUse">
            <stop offset="0" stop-color="#28819d"/>
            <stop offset="1" stop-color="#67b8d6"/>
        </linearGradient>
        <linearGradient id="linear-gradient-2" x1="4" y1="35.05" x2="59" y2="35.05" gradientUnits="userSpaceOnUse">
            <stop offset="0" stop-color="#46c8f4"/>
            <stop offset="1" stop-color="#186279"/>
        </linearGradient>
        <clipPath id="clippath">
            <path class="cls-1" d="M59,47.94v-25.87c0-1.82-1.01-3.54-2.53-4.45l-22.44-12.94c-1.62-.91-3.54-.91-5.06,0L6.53,17.62c-1.52.91-2.53,2.53-2.53,4.45v25.87c0,1.82,1.01,3.54,2.53,4.45l22.44,12.94c1.62.91,3.54.91,5.06,0l22.44-12.94c1.62-.91,2.53-2.53,2.53-4.45Z"/>
        </clipPath>
        <linearGradient id="linear-gradient-3" x1="21.85" y1="11.4" x2="41" y2="11.4" xlink:href="#linear-gradient-2"/>
        <linearGradient id="linear-gradient-4" x1="2.2" y1="11.4" x2="21.34" y2="11.4" xlink:href="#linear-gradient-2"/>
        <linearGradient id="linear-gradient-5" x1="41.61" y1="11.4" x2="60.76" y2="11.4" xlink:href="#linear-gradient-2"/>
        <linearGradient id="linear-gradient-6" x1="21.85" y1="45.56" x2="41" y2="45.56" xlink:href="#linear-gradient-2"/>
        <linearGradient id="linear-gradient-7" x1="2.2" y1="45.56" x2="21.34" y2="45.56" xlink:href="#linear-gradient-2"/>
        <linearGradient id="linear-gradient-8" x1="41.61" y1="45.56" x2="60.76" y2="45.56" xlink:href="#linear-gradient-2"/>
        <linearGradient id="linear-gradient-9" x1="11.97" y1="28.5" x2="31.12" y2="28.5" xlink:href="#linear-gradient-2"/>
        <linearGradient id="linear-gradient-10" x1="-7.68" y1="28.5" x2="11.46" y2="28.5" xlink:href="#linear-gradient-2"/>
        <linearGradient id="linear-gradient-11" x1="31.63" y1="28.5" x2="50.78" y2="28.5" xlink:href="#linear-gradient-2"/>
        <linearGradient id="linear-gradient-12" x1="11.97" y1="-5.5" x2="31.12" y2="-5.5" xlink:href="#linear-gradient-2"/>
        <linearGradient id="linear-gradient-13" x1="31.63" y1="-5.5" x2="50.78" y2="-5.5" xlink:href="#linear-gradient-2"/>
        <linearGradient id="linear-gradient-14" x1="51.19" y1="28.5" x2="70.34" y2="28.5" xlink:href="#linear-gradient-2"/>
        <linearGradient id="linear-gradient-15" x1="11.97" y1="62.51" x2="31.12" y2="62.51" xlink:href="#linear-gradient-2"/>
        <linearGradient id="linear-gradient-16" x1="31.63" y1="62.51" x2="50.78" y2="62.51" xlink:href="#linear-gradient-2"/>
        <linearGradient id="linear-gradient-17" x1="4" y1="35" x2="59" y2="35" gradientUnits="userSpaceOnUse">
            <stop offset="0" stop-color="#2785a4"/>
            <stop offset="1" stop-color="#186279"/>
        </linearGradient>
        <linearGradient id="linear-gradient-18" x1="31.18" y1="54.33" x2="31.18" y2="10.85" gradientUnits="userSpaceOnUse">
            <stop offset="0" stop-color="#b7e3f0"/>
            <stop offset=".51" stop-color="#e7f4f2"/>
            <stop offset="1" stop-color="#b7e3f0"/>
        </linearGradient>
    </defs>
    <g id="Blue_Logo-2" data-name="Blue Logo">
        <path id="IFEX" class="cls-3" d="M66,19h8s0,32,0,32h-8s0-32,0-32ZM94,44v7h21l5-7h-26ZM124.37,32h-36.37v-6h31.76l-5.37-7h-34.39v32h8v-13h36.41l2.25-3-2.3-3ZM122.09,51h10.91l6.5-9.5,6.5,9.5h11s-12.21-16-12.21-16l12.21-16h-12l-5.5,9-5.5-9h-12l12.2,16-12.11,16Z"/>
        <g id="Logo">
            <g>
                <path class="cls-2" d="M59,47.94v-25.87c0-1.82-1.01-3.44-2.53-4.35l-22.44-12.94c-1.62-.91-3.54-.91-5.06,0L6.53,17.72c-1.52.91-2.53,2.53-2.53,4.35v25.87c0,1.82,1.01,3.54,2.53,4.45l22.44,12.94c1.62.91,3.54.91,5.06,0l22.44-12.94c1.62-.91,2.53-2.53,2.53-4.45Z"/>
                <g class="cls-20">
                    <g>
                        <polygon class="cls-10" points="41 16.9 41 5.9 31.43 .3 21.85 5.9 21.85 16.9 31.43 22.5 41 16.9"/>
                        <polygon class="cls-8" points="21.34 16.9 21.34 5.9 11.77 .3 2.2 5.9 2.2 16.9 11.77 22.5 21.34 16.9"/>
                        <polygon class="cls-5" points="60.76 16.9 60.76 5.9 51.19 .3 41.61 5.9 41.61 16.9 51.19 22.5 60.76 16.9"/>
                        <polygon class="cls-7" points="41 51.11 41 40.01 31.43 34.51 21.85 40.01 21.85 51.11 31.43 56.6 41 51.11"/>
                        <polygon class="cls-6" points="21.34 51.11 21.34 40.01 11.77 34.51 2.2 40.01 2.2 51.11 11.77 56.6 21.34 51.11"/>
                        <polygon class="cls-4" points="60.76 51.11 60.76 40.01 51.19 34.51 41.61 40.01 41.61 51.11 51.19 56.6 60.76 51.11"/>
                        <polygon class="cls-9" points="31.12 34 31.12 23.01 21.55 17.41 11.97 23.01 11.97 34 21.55 39.6 31.12 34"/>
                        <polygon class="cls-17" points="11.46 34 11.46 23.01 1.89 17.41 -7.68 23.01 -7.68 34 1.89 39.6 11.46 34"/>
                        <polygon class="cls-16" points="50.78 34 50.78 23.01 41.21 17.41 31.63 23.01 31.63 34 41.21 39.6 50.78 34"/>
                        <polygon class="cls-15" points="31.12 0 31.12 -11 21.55 -16.6 11.97 -11 11.97 0 21.55 5.6 31.12 0"/>
                        <polygon class="cls-14" points="50.78 0 50.78 -11 41.21 -16.6 31.63 -11 31.63 0 41.21 5.6 50.78 0"/>
                        <polygon class="cls-13" points="70.34 34 70.34 23.01 60.76 17.41 51.19 23.01 51.19 34 60.76 39.6 70.34 34"/>
                        <polygon class="cls-11" points="31.12 68.01 31.12 57.01 21.55 51.41 11.97 57.01 11.97 68.01 21.55 73.61 31.12 68.01"/>
                        <polygon class="cls-12" points="50.78 68.01 50.78 57.01 41.21 51.41 31.63 57.01 31.63 68.01 41.21 73.61 50.78 68.01"/>
                    </g>
                </g>
                <path class="cls-18" d="M59,47.94v-25.87c0-1.82-1.01-3.54-2.53-4.45l-22.44-12.94c-1.62-.91-3.54-.91-5.06,0L6.53,17.62c-1.52.91-2.53,2.53-2.53,4.45v25.87c0,1.82,1.01,3.54,2.53,4.45l22.44,12.94c1.62.91,3.54.91,5.06,0l22.44-12.94c1.62-.91,2.53-2.53,2.53-4.45Z"/>
            </g>
            <path class="cls-19" d="M31.18,30.13c-2.52,0-4.56,2.04-4.56,4.56s2.04,4.56,4.56,4.56,4.56-2.04,4.56-4.56-2.04-4.56-4.56-4.56ZM31.18,37.75c-1.68,0-3.06-1.37-3.06-3.06s1.37-3.06,3.06-3.06,3.06,1.37,3.06,3.06-1.37,3.06-3.06,3.06ZM47.45,40.48c-1.32,0-2.51.57-3.34,1.47l-3.67-2.38c.2-.45.3-.93.3-1.43v-6.89c0-.4-.07-.79-.2-1.16l3.45-2.24c.81.75,1.89,1.22,3.09,1.22.8,0,1.56-.21,2.23-.58l-.75-1.3c-.44.24-.94.38-1.47.38-1.68,0-3.06-1.37-3.06-3.06,0-1.1.59-2.08,1.48-2.61l-.75-1.3c-1.34.79-2.24,2.25-2.24,3.92,0,.78.21,1.5.56,2.14l-3.31,2.14c-.24-.25-.51-.48-.82-.66l-5.97-3.45c-.32-.18-.68-.31-1.04-.39v-4.41c2.16-.36,3.81-2.22,3.81-4.48,0-2.51-2.04-4.56-4.56-4.56s-4.56,2.04-4.56,4.56c0,2.25,1.65,4.12,3.81,4.48v4.41c-.36.08-.71.21-1.04.39l-5.97,3.45c-.32.19-.6.42-.84.69l-3.85-2.5c.24-.55.38-1.16.38-1.81,0-1.68-.92-3.17-2.29-3.95l-.79,1.28c.94.52,1.57,1.52,1.57,2.67,0,1.68-1.37,3.06-3.06,3.06-.63,0-1.22-.19-1.71-.53l-.79,1.28c.72.47,1.58.75,2.51.75,1.33,0,2.52-.58,3.35-1.48l3.92,2.53c-.12.36-.19.74-.19,1.13v6.89c0,.5.11.99.31,1.44l-3.67,2.38c-.83-.91-2.01-1.48-3.35-1.48-2.52,0-4.56,2.04-4.56,4.55s2.04,4.56,4.56,4.56,4.56-2.04,4.56-4.56c0-.64-.14-1.25-.38-1.81l3.72-2.41c.19.16.38.32.6.44l5.97,3.45c.33.19.68.32,1.04.39v4.68c-2.16.36-3.81,2.22-3.81,4.48v.09h1.51s0-.06,0-.09c0-1.68,1.37-3.06,3.06-3.06s3.06,1.37,3.06,3.06c0,.03,0,.06-.01.09h1.51v-.09c0-2.25-1.65-4.12-3.81-4.48v-4.68c.36-.07.72-.2,1.04-.39l5.97-3.45c.22-.13.43-.28.61-.45l3.72,2.4c-.25.57-.39,1.18-.39,1.83,0,2.51,2.04,4.56,4.56,4.56s4.56-2.04,4.56-4.56-2.04-4.55-4.56-4.55ZM14.91,48.09c-1.68,0-3.06-1.37-3.06-3.06s1.37-3.05,3.06-3.05,3.06,1.36,3.06,3.05-1.37,3.06-3.06,3.06ZM28.12,15.41c0-1.68,1.37-3.06,3.06-3.06s3.06,1.37,3.06,3.06-1.37,3.06-3.06,3.06-3.06-1.37-3.06-3.06ZM39.24,38.14c0,.74-.4,1.43-1.04,1.81l-5.97,3.44c-.64.37-1.44.37-2.08,0l-5.97-3.44c-.64-.38-1.04-1.07-1.04-1.81v-6.89c0-.74.4-1.44,1.04-1.81l5.97-3.45c.32-.18.68-.27,1.04-.27s.72.09,1.04.27l5.97,3.45c.64.37,1.04,1.07,1.04,1.81v6.89ZM47.45,48.09c-1.68,0-3.06-1.37-3.06-3.06s1.37-3.05,3.06-3.05,3.06,1.36,3.06,3.05-1.37,3.06-3.06,3.06Z"/>
        </g>
    </g>
</svg>
